<?xml version="1.0" encoding="UTF-8" standalone="no"?>
<!DOCTYPE svg PUBLIC "-//W3C//DTD SVG 1.1//EN" "http://www.w3.org/Graphics/SVG/1.1/DTD/svg11.dtd">
<svg width="100%" height="100%" viewBox="0 0 1080 1080" version="1.1" xmlns="http://www.w3.org/2000/svg" xmlns:xlink="http://www.w3.org/1999/xlink" xml:space="preserve" xmlns:serif="http://www.serif.com/" style="fill-rule:evenodd;clip-rule:evenodd;stroke-linejoin:round;stroke-miterlimit:2;">
    <g transform="matrix(0.766165,0.452018,-0.477489,0.809337,380.518,-202.87)">
        <path d="M578.748,109.282L1012.85,351.961L1012.85,837.32L578.748,1080L144.651,837.32L144.651,351.961L578.748,109.282Z" style="fill:rgb(191,191,191);"/>
    </g>
    <g transform="matrix(0.550134,-0.15109,-0.15109,-0.550134,271.091,807.036)">
        <path d="M538.195,152.726L925.39,540L151,540L538.195,152.726Z" style="fill:rgb(201,232,145);"/>
    </g>
    <g transform="matrix(0.276962,-0.068271,-0.068271,-0.276962,744.398,901.371)">
        <path d="M538.195,152.726L925.39,540L151,540L538.195,152.726Z" style="fill:rgb(240,242,35);"/>
    </g>
    <g transform="matrix(-0.277002,0.06811,0.06811,0.277002,964.988,513.955)">
        <path d="M538.195,152.726L925.39,540L151,540L538.195,152.726Z" style="fill:rgb(241,149,200);"/>
    </g>
    <g transform="matrix(-0.388983,0.106262,0.106262,0.388983,709.388,127.945)">
        <path d="M538.195,152.726L925.39,540L151,540L538.195,152.726Z" style="fill:rgb(248,200,44);"/>
    </g>
    <g transform="matrix(0.706413,0.390491,-0.390491,0.706413,379.207,77.5023)">
        <rect x="538.116" y="540.125" width="193.716" height="193.433" style="fill:rgb(167,150,194);"/>
    </g>
    <g transform="matrix(-0.400251,0.700929,-0.700929,-0.400251,807.089,314.803)">
        <path d="M731.832,540.125L731.832,733.558L538.288,540.071L538.265,346.556L731.832,540.125Z" style="fill:rgb(223,80,138);"/>
    </g>
    <g transform="matrix(0.282519,-0.495639,-0.495639,-0.282519,782.349,879.245)">
        <path d="M538.195,152.726L925.39,540L151,540L538.195,152.726Z" style="fill:rgb(104,192,210);"/>
    </g>
</svg>
