<?xml version="1.0" encoding="UTF-8" standalone="no"?>
<!DOCTYPE svg PUBLIC "-//W3C//DTD SVG 1.1//EN" "http://www.w3.org/Graphics/SVG/1.1/DTD/svg11.dtd">
<svg width="100%" height="100%" viewBox="0 0 1080 1080" version="1.1" xmlns="http://www.w3.org/2000/svg" xmlns:xlink="http://www.w3.org/1999/xlink" xml:space="preserve" xmlns:serif="http://www.serif.com/" style="fill-rule:evenodd;clip-rule:evenodd;stroke-linejoin:round;stroke-miterlimit:2;">
    <g transform="matrix(0.870129,-0.238974,-0.238974,-0.870129,165.854,938.638)">
        <path d="M538.195,152.726L925.39,540L151,540L538.195,152.726Z" style="fill:rgb(201,232,145);"/>
    </g>
    <g transform="matrix(0.312923,-0.0771353,-0.0771353,-0.312923,821.69,963.204)">
        <path d="M538.195,152.726L925.39,540L151,540L538.195,152.726Z" style="fill:rgb(240,242,35);"/>
    </g>
    <g transform="matrix(-0.312968,0.0769534,0.0769534,0.312968,1070.92,525.485)">
        <path d="M538.195,152.726L925.39,540L151,540L538.195,152.726Z" style="fill:rgb(241,149,200);"/>
    </g>
    <g transform="matrix(-0.439489,0.12006,0.12006,0.439489,721.786,7.54268)">
        <path d="M538.195,152.726L925.39,540L151,540L538.195,152.726Z" style="fill:rgb(248,200,44);"/>
    </g>
    <g transform="matrix(0.798134,0.441193,-0.441193,0.798134,409.083,32.3637)">
        <rect x="538.116" y="540.125" width="193.716" height="193.433" style="fill:rgb(167,150,194);"/>
    </g>
    <g transform="matrix(-0.479001,0.776033,-0.776033,-0.479001,882.822,278.795)">
        <path d="M682.49,614.73L682.637,702.871L576.716,597.933L571.158,504.962L682.49,614.73Z" style="fill:rgb(145,166,221);"/>
    </g>
    <g transform="matrix(0.319202,-0.559993,-0.559993,-0.319202,864.569,938.205)">
        <path d="M538.195,152.726L925.39,540L151,540L538.195,152.726Z" style="fill:rgb(104,192,210);"/>
    </g>
</svg>
